<svg width="32" height="32" viewBox="0 0 32 32" fill="none" xmlns="http://www.w3.org/2000/svg">
    <path d="M16 32C24.8366 32 32 24.8366 32 16C32 7.16344 24.8366 0 16 0C7.16344 0 0 7.16344 0 16C0 24.8366 7.16344 32 16 32Z" fill="#2D374B"/>
    <path d="M21.7014 18.5323L23.2281 15.8922L20.4833 11.2726H17.4092L19.5781 15.8922L18.0514 18.5323H21.7014ZM11.5487 18.5323L13.0754 15.8922L10.3306 11.2726H7.25647L9.42535 15.8922L7.89868 18.5323H11.5487Z" fill="#28A0F0"/>
    <path d="M24.7434 18.5323L16.625 4.36035L8.50662 18.5323H11.5487L16.625 9.29325L21.7014 18.5323H24.7434Z" fill="white"/>
    <path d="M16.625 27.6396L24.7434 13.4677H21.7014L16.625 22.7067L11.5487 13.4677H8.50662L16.625 27.6396Z" fill="white"/>
</svg> 