<svg width="32" height="32" viewBox="0 0 32 32" fill="none" xmlns="http://www.w3.org/2000/svg">
    <path d="M16 32C24.8366 32 32 24.8366 32 16C32 7.16344 24.8366 0 16 0C7.16344 0 0 7.16344 0 16C0 24.8366 7.16344 32 16 32Z" fill="#E84142"/>
    <path d="M21.7034 22H19.0254C18.1614 22 17.5534 21.736 17.2014 21.208L13.9814 16.112L11.4494 21.244C11.0974 21.748 10.4894 22 9.65141 22H7.00141C6.55741 22 6.26541 21.856 6.12541 21.568C5.98541 21.28 6.02541 20.932 6.24541 20.524L11.0254 12.224C11.1654 11.972 11.3174 11.696 11.4814 11.396C11.6454 11.096 11.7974 10.784 11.9374 10.46C12.0774 10.136 12.1474 9.824 12.1474 9.524C12.1474 9.428 12.1354 9.344 12.1114 9.272C12.0874 9.2 12.0394 9.164 11.9674 9.164H7.72941C7.33341 9.164 7.13541 8.948 7.13541 8.516V7.4C7.13541 6.968 7.33341 6.752 7.72941 6.752H13.4494C13.9654 6.752 14.3774 6.824 14.6854 6.968C14.9934 7.112 15.2014 7.316 15.3094 7.58C15.4174 7.844 15.4734 8.156 15.4734 8.516C15.4734 9.092 15.3454 9.692 15.0894 10.316C14.8334 10.94 14.5494 11.504 14.2374 12.008L13.2494 13.72L16.4694 18.384L20.4894 12.008C20.6294 11.756 20.7814 11.48 20.9454 11.18C21.1094 10.88 21.2614 10.568 21.4014 10.244C21.5414 9.92 21.6114 9.608 21.6114 9.308C21.6114 9.212 21.5994 9.128 21.5754 9.056C21.5514 8.984 21.5034 8.948 21.4314 8.948H17.1934C16.7974 8.948 16.5994 8.732 16.5994 8.3V7.184C16.5994 6.752 16.7974 6.536 17.1934 6.536H22.9134C23.4294 6.536 23.8414 6.608 24.1494 6.752C24.4574 6.896 24.6654 7.1 24.7734 7.364C24.8814 7.628 24.9374 7.94 24.9374 8.3C24.9374 8.876 24.8094 9.476 24.5534 10.1C24.2974 10.724 24.0134 11.288 23.7014 11.792L19.3094 19.188C19.0894 19.596 19.1294 19.92 19.4294 20.16C19.7294 20.4 20.0174 20.52 20.2934 20.52H21.7034C22.0994 20.52 22.2974 20.736 22.2974 21.168V22.284C22.2974 22.716 22.0994 22.932 21.7034 22.932H7.00141C6.60541 22.932 6.40741 22.716 6.40741 22.284V21.168C6.40741 20.736 6.60541 20.52 7.00141 20.52H8.41141C8.68741 20.52 8.97541 20.4 9.27541 20.16C9.57541 19.92 9.61541 19.596 9.39541 19.188L5.00341 11.792C4.69141 11.288 4.40741 10.724 4.15141 10.1C3.89541 9.476 3.76741 8.876 3.76741 8.3C3.76741 7.94 3.82341 7.628 3.93141 7.364C4.03941 7.1 4.24741 6.896 4.55541 6.752C4.86341 6.608 5.27541 6.536 5.79141 6.536H11.5114C11.9074 6.536 12.1054 6.752 12.1054 7.184V8.3C12.1054 8.732 11.9074 8.948 11.5114 8.948H7.27341C7.20141 8.948 7.15341 8.984 7.12941 9.056C7.10541 9.128 7.09341 9.212 7.09341 9.308C7.09341 9.608 7.16341 9.92 7.30341 10.244C7.44341 10.568 7.59541 10.88 7.75941 11.18C7.92341 11.48 8.07541 11.756 8.21541 12.008L12.2354 18.384L15.4554 13.72L14.4674 12.008C14.1554 11.504 13.8714 10.94 13.6154 10.316C13.3594 9.692 13.2314 9.092 13.2314 8.516C13.2314 8.156 13.2874 7.844 13.3954 7.58C13.5034 7.316 13.7114 7.112 14.0194 6.968C14.3274 6.824 14.7394 6.752 15.2554 6.752H20.9754C21.3714 6.752 21.5694 6.968 21.5694 7.4V8.516C21.5694 8.948 21.3714 9.164 20.9754 9.164H16.7374C16.6654 9.164 16.6174 9.2 16.5934 9.272C16.5694 9.344 16.5574 9.428 16.5574 9.524C16.5574 9.824 16.6274 10.136 16.7674 10.46C16.9074 10.784 17.0594 11.096 17.2234 11.396C17.3874 11.696 17.5394 11.972 17.6794 12.224L22.4594 20.524C22.6794 20.932 22.7194 21.28 22.5794 21.568C22.4394 21.856 22.1474 22 21.7034 22Z" fill="white"/>
</svg> 