<svg width="32" height="32" viewBox="0 0 32 32" fill="none" xmlns="http://www.w3.org/2000/svg">
    <path d="M16 32C24.8366 32 32 24.8366 32 16C32 7.16344 24.8366 0 16 0C7.16344 0 0 7.16344 0 16C0 24.8366 7.16344 32 16 32Z" fill="#0052FF"/>
    <path d="M16 6C10.476 6 6 10.476 6 16C6 21.524 10.476 26 16 26C21.524 26 26 21.524 26 16C26 10.476 21.524 6 16 6ZM16 22.4C12.464 22.4 9.6 19.536 9.6 16C9.6 12.464 12.464 9.6 16 9.6C19.536 9.6 22.4 12.464 22.4 16C22.4 19.536 19.536 22.4 16 22.4Z" fill="white"/>
</svg> 