<svg width="32" height="32" viewBox="0 0 32 32" fill="none" xmlns="http://www.w3.org/2000/svg">
    <path d="M16 32C24.8366 32 32 24.8366 32 16C32 7.16344 24.8366 0 16 0C7.16344 0 0 7.16344 0 16C0 24.8366 7.16344 32 16 32Z" fill="#8247E5"/>
    <path d="M21.092 12.856C20.676 12.608 20.156 12.608 19.708 12.856L16.804 14.548L14.772 15.612L11.9 17.304C11.484 17.552 10.964 17.552 10.516 17.304L8.26 16.02C7.844 15.772 7.556 15.308 7.556 14.812V12.276C7.556 11.78 7.812 11.316 8.26 11.068L10.484 9.816C10.9 9.568 11.42 9.568 11.868 9.816L14.092 11.068C14.508 11.316 14.796 11.78 14.796 12.276V13.968L16.828 12.872V11.18C16.828 10.684 16.572 10.22 16.124 9.972L11.9 7.496C11.484 7.248 10.964 7.248 10.516 7.496L6.228 9.972C5.78 10.22 5.524 10.684 5.524 11.18V15.908C5.524 16.404 5.78 16.868 6.228 17.116L10.516 19.592C10.932 19.84 11.452 19.84 11.9 19.592L14.772 17.932L16.804 16.836L19.676 15.176C20.092 14.928 20.612 14.928 21.06 15.176L23.284 16.428C23.7 16.676 23.988 17.14 23.988 17.636V20.172C23.988 20.668 23.732 21.132 23.284 21.38L21.092 22.632C20.676 22.88 20.156 22.88 19.708 22.632L17.484 21.38C17.068 21.132 16.78 20.668 16.78 20.172V18.48L14.748 19.576V21.268C14.748 21.764 15.004 22.228 15.452 22.476L19.74 24.952C20.156 25.2 20.676 25.2 21.124 24.952L25.412 22.476C25.828 22.228 26.116 21.764 26.116 21.268V16.54C26.116 16.044 25.86 15.58 25.412 15.332L21.092 12.856Z" fill="white"/>
</svg> 